<?xml version="1.0" ?>
<svg viewBox="0 0 64 64" 
  xmlns="http://www.w3.org/2000/svg">
  <title/>
  <g data-name="Outline putus" id="Outline_putus">
    <path d="M37.7681,11.6943A14.8338,14.8338,0,0,0,40.93,12c2.5322,0,4.0571-.4,4.9438-1.2969a1,1,0,1,0-1.4228-1.4062C44.1343,9.6177,43.2661,10,40.93,10a12.8,12.8,0,0,1-2.7168-.2559,1,1,0,1,0-.4453,1.95Z"/>
    <path d="M50.707,45.8047c-4.4168-4.4172-10.02-3.2995-13.7025-1.77a27.0327,27.0327,0,0,0,4.7809-9.0816A7.0079,7.0079,0,0,0,48,28V27a2.9816,2.9816,0,0,0-.9951-2.2156C48.9953,22.3269,49,19.7734,49,16.3857V16a1,1,0,0,0-2,0v.3857c0,3.418,0,5.54-1.9624,7.6143H43.6888a27.6989,27.6989,0,0,1-.6805-3.1182,1,1,0,1,0-1.9746.3194c.057.351.2786,1.6546.5787,2.7988H40.615A13.4518,13.4518,0,0,1,39,19a1,1,0,0,0-2,0,13.3651,13.3651,0,0,0,1.392,5h-1.43C35,21.9253,35,19.8037,35,16.3857V13.3324A10.544,10.544,0,0,0,41,15c4.4858,0,8-2.1963,8-5s-3.5142-5-8-5-8,2.1963-8,5c0,.0566.01.1113.0131.1675-.0015.0226-.0131.0419-.0131.0649v6.1533c0,3.8184,0,6.5772,2.85,9.3331A1,1,0,0,0,36.5454,26H45a1.0013,1.0013,0,0,1,1,1v1a5,5,0,0,1-10,0,1,1,0,0,0-2,0,7.0078,7.0078,0,0,0,5.7129,6.8762,27.2979,27.2979,0,0,1-5.2918,9.0771A12.6134,12.6134,0,0,0,32.5957,36.81c-1.6465-2.5235-4.3159-4.1109-7.9351-4.7183a.999.999,0,0,0-1.1079.6519c-.0791.2226-1.9033,5.4985.6748,9.9238a10.84,10.84,0,0,0,6.7439,4.8051,48.7755,48.7755,0,0,1-17.2878,9.5792,1,1,0,1,0,.6328,1.8974c8.9032-2.9677,14.97-6.9978,19.1-10.9457,2.8349,2.43,5.7061,3.67,8.5558,3.67a9.9232,9.9232,0,0,0,1.0288-.0532,12.0406,12.0406,0,0,0,7.8051-4.5171A1,1,0,0,0,50.707,45.8047ZM41,7c3.5361,0,6,1.5811,6,3s-2.4639,3-6,3-6-1.5811-6-3S37.4639,7,41,7ZM25.9624,41.6719c-1.5767-2.6948-1.1025-5.9385-.7524-7.4336a8.8669,8.8669,0,0,1,5.7041,3.6538,11.1962,11.1962,0,0,1,1.456,6.9033,27.2688,27.2688,0,0,1-4.2978-7.0918,1,1,0,0,0-1.8506.76,28.3951,28.3951,0,0,0,3.7815,6.56A8.1951,8.1951,0,0,1,25.9624,41.6719Zm16.832,7.959a8.95,8.95,0,0,1-5.0464-1.0691c.2774.01.5547.0207.8262.0207a31.0372,31.0372,0,0,0,5.58-.5874,1,1,0,1,0-.3506-1.9687,24.79,24.79,0,0,1-7.3461.4429c2.8721-1.4551,8.0609-3.2249,12.1489.1264A9.7484,9.7484,0,0,1,42.7944,49.6309Z"/>
  </g>
</svg>